<?xml version="1.0" encoding="utf-8"?>
<!-- Generator: Adobe Illustrator 27.0.0, SVG Export Plug-In . SVG Version: 6.00 Build 0)  -->
<svg version="1.1" id="Layer_1" xmlns="http://www.w3.org/2000/svg" xmlns:xlink="http://www.w3.org/1999/xlink" x="0px" y="0px"
	 viewBox="0 0 499.3 499.3" style="enable-background:new 0 0 499.3 499.3;" xml:space="preserve">
<style type="text/css">
	.st0{fill:#FFFFFF;}
	.st1{fill:#0EA5E9;}
</style>
<image style="display:none;overflow:visible;" width="256" height="256" xlink:href="C:\Users\User\Downloads\256x256bb.jpg"  transform="matrix(1 0 0 1 768.0635 -515.3973)">
</image>
<g>
	<path class="st0" d="M249.7,499.3L249.7,499.3C111.8,499.3,0,387.6,0,249.7v0C0,111.8,111.8,0,249.7,0h0
		c137.9,0,249.7,111.8,249.7,249.7v0C499.3,387.6,387.6,499.3,249.7,499.3z"/>
	<g>
		<path class="st1" d="M273.5,182.3l135.7,0v0c0-48.8-39.5-88.3-88.3-88.3l-47.4,0c-24.4,0-44.1,19.8-44.1,44.1v0
			C229.3,162.5,249.1,182.3,273.5,182.3z"/>
		<path class="st1" d="M134.3,293.8l274.9,0l0-88.3l-274.9,0c-24.4,0-44.1,19.8-44.1,44.1v0C90.1,274,109.9,293.8,134.3,293.8z"/>
		<path class="st1" d="M186.8,405.3l134.1,0c48.8,0,88.3-39.5,88.3-88.3v0l-222.4,0c-22.1,0-40,17.9-40,40v8.2
			C146.8,387.4,164.7,405.3,186.8,405.3z"/>
	</g>
</g>
</svg>
