<?xml version="1.0" encoding="utf-8"?>
<!-- Generator: Adobe Illustrator 27.0.0, SVG Export Plug-In . SVG Version: 6.00 Build 0)  -->
<svg version="1.1" id="Layer_1" xmlns="http://www.w3.org/2000/svg" xmlns:xlink="http://www.w3.org/1999/xlink" x="0px" y="0px"
	 viewBox="0 0 2403.3 497.7" style="enable-background:new 0 0 2403.3 497.7;" xml:space="preserve">
<style type="text/css">
	.st0{fill:#0EA5E9;}
	.st1{fill:#535659;}
</style>
<image style="display:none;overflow:visible;" width="256" height="256" xlink:href="C:\Users\User\Downloads\256x256bb.jpg"  transform="matrix(1 0 0 1 793.4828 236.4561)">
</image>
<g>
	<g>
		<path class="st0" d="M293.1,141.2l217,0v0C510.1,63.2,446.9,0,369,0l-75.9,0c-39,0-70.6,31.6-70.6,70.6v0
			C222.5,109.6,254.1,141.2,293.1,141.2z"/>
		<path class="st0" d="M70.6,319.4l439.5,0l0-141.2l-439.5,0c-39,0-70.6,31.6-70.6,70.6l0,0C0,287.8,31.6,319.4,70.6,319.4z"/>
		<path class="st0" d="M154.5,497.7l214.4,0c78,0,141.2-63.2,141.2-141.2v0l-355.6,0c-35.3,0-64,28.7-64,64l0,13.1
			C90.5,469.1,119.2,497.7,154.5,497.7z"/>
	</g>
	<g>
		<g>
			<path class="st0" d="M655.6,51.4h54L785,227.7l75.4-176.3h53.7v237.1h-47.6V134.3L803,288.5h-36l-63.9-154.2v154.2h-47.6V51.4z"
				/>
			<path class="st0" d="M955.9,50c0-15.6,12.2-27.9,29.2-27.9c16.6,0,29.2,12.2,29.2,27.9c0,15.6-12.6,27.9-29.2,27.9
				C968.1,77.9,955.9,65.6,955.9,50z M961,100.3h47.6v188.2H961V100.3z"/>
			<path class="st0" d="M1055.4,37.1h47.6v251.4h-47.6V37.1z"/>
			<path class="st0" d="M1149.9,37.1h47.6v251.4h-47.6V37.1z"/>
			<path class="st0" d="M1318,97.2c30.2,0,51,14.3,62.2,29.9v-26.8h47.9v188.2h-47.9V261c-11.2,16.3-32.6,30.6-62.5,30.6
				c-47.6,0-85.6-39.1-85.6-97.8C1232.1,134.9,1270.1,97.2,1318,97.2z M1330.2,139c-25.5,0-49.6,19-49.6,54.7
				c0,35.7,24.1,56,49.6,56c26.2,0,49.9-19.7,49.9-55.4C1380.2,158.7,1356.4,139,1330.2,139z"/>
			<path class="st0" d="M1606.4,184.5c0-30.2-16.6-46.5-41.8-46.5c-25.8,0-42.5,16.3-42.5,46.5v103.9h-47.6V100.3h47.6v23.4
				c12.2-16,32.6-26.2,56.7-26.2c43.8,0,75.1,28.5,75.1,80.5v110.4h-47.6V184.5z"/>
			<path class="st0" d="M1782.7,291.5c-54.4,0-95.5-38-95.5-97.2c0-59.4,42.5-97.2,96.8-97.2c54.3,0,96.8,37.7,96.8,97.2
				C1880.9,253.5,1837.4,291.5,1782.7,291.5z M1782.7,250.1c25.1,0,49.3-18.3,49.3-55.7c0-37.7-23.4-55.7-48.6-55.7
				c-25.1,0-47.9,18-47.9,55.7C1735.5,231.8,1757.2,250.1,1782.7,250.1z"/>
			<path class="st0" d="M1923.3,139.4h-22.4v-39.1h22.4V53.8h47.9v46.5h42.1v39.1h-42.1v91c0,12.6,5.1,18,20,18h22.1v40.1h-29.9
				c-36,0-60.1-15.3-60.1-58.4V139.4z"/>
			<path class="st0" d="M2129.9,291.5c-54.7,0-94.4-38-94.4-97.2c0-59.4,38.7-97.2,94.4-97.2c54.3,0,92.7,37,92.7,93.1
				c0,6.1-0.3,12.2-1.4,18.3h-137.6c2.4,27.9,21.4,43.5,45.2,43.5c20.4,0,31.6-10.2,37.7-22.8h51.3
				C2207.7,264,2176.4,291.5,2129.9,291.5z M2084,176.7h89.3c-0.7-24.8-20.4-40.4-44.8-40.4C2105.7,136.3,2087.7,150.9,2084,176.7z"
				/>
			<path class="st0" d="M2329.3,291.5c-47.2,0-80.2-27.5-82.2-62.5h47.9c1.7,14.3,14.9,25.1,34,25.1c18.7,0,28.9-8.5,28.9-19.4
				c0-33.6-106.3-12.2-106.3-81.2c0-31.3,27.9-56.4,74.4-56.4c45.5,0,73,24.8,75.8,62.2h-45.5c-1.4-14.6-12.9-24.5-31.6-24.5
				c-17.7,0-26.8,7.1-26.8,18c0,34.3,104.3,12.9,105.6,81.9C2403.3,267.1,2375.1,291.5,2329.3,291.5z"/>
		</g>
		<g>
			<path class="st1" d="M655.6,361.9h59.9v13.2h-21.8v68.5h-16.4v-68.5h-21.8V361.9z"/>
			<path class="st1" d="M752.9,377.7c10.4,0,17.6,4.9,21.4,10.3v-9.2h16.5v64.8h-16.5v-9.5c-3.9,5.6-11.2,10.5-21.5,10.5
				c-16.4,0-29.5-13.5-29.5-33.7C723.3,390.7,736.4,377.7,752.9,377.7z M757.1,392.1c-8.8,0-17.1,6.6-17.1,18.8
				c0,12.3,8.3,19.3,17.1,19.3c9,0,17.2-6.8,17.2-19.1C774.3,398.9,766.1,392.1,757.1,392.1z"/>
			<path class="st1" d="M831.7,444.7c-16.3,0-27.6-9.5-28.3-21.5h16.5c0.6,4.9,5.2,8.7,11.7,8.7c6.4,0,9.9-2.9,9.9-6.7
				c0-11.6-36.6-4.2-36.6-28c0-10.8,9.6-19.4,25.6-19.4c15.7,0,25.2,8.5,26.1,21.4h-15.7c-0.5-5-4.4-8.4-10.9-8.4
				c-6.1,0-9.2,2.5-9.2,6.2c0,11.8,35.9,4.4,36.4,28.2C857.2,436.2,847.5,444.7,831.7,444.7z"/>
			<path class="st1" d="M870.6,357H887v49.3l21.8-27.5h21.3l-28.6,32.5l28.8,32.3H909L887,416v27.6h-16.4V357z"/>
			<path class="st1" d="M966.9,361.9h18.6l26,60.8l26-60.8h18.5v81.7h-16.4v-53.1l-21.9,53.1h-12.4l-22-53.1v53.1h-16.4V361.9z"/>
			<path class="st1" d="M1097.5,377.7c10.4,0,17.6,4.9,21.4,10.3v-9.2h16.5v64.8h-16.5v-9.5c-3.9,5.6-11.2,10.5-21.5,10.5
				c-16.4,0-29.5-13.5-29.5-33.7C1067.9,390.7,1081,377.7,1097.5,377.7z M1101.7,392.1c-8.8,0-17.1,6.6-17.1,18.8
				c0,12.3,8.3,19.3,17.1,19.3c9,0,17.2-6.8,17.2-19.1C1118.9,398.9,1110.7,392.1,1101.7,392.1z"/>
			<path class="st1" d="M1196.9,407.8c0-10.4-5.7-16-14.4-16c-8.9,0-14.6,5.6-14.6,16v35.8h-16.4v-64.8h16.4v8.1
				c4.2-5.5,11.2-9,19.5-9c15.1,0,25.9,9.8,25.9,27.7v38h-16.4V407.8z"/>
			<path class="st1" d="M1254.3,377.7c10.4,0,17.6,4.9,21.4,10.3v-9.2h16.5v64.8h-16.5v-9.5c-3.9,5.6-11.2,10.5-21.5,10.5
				c-16.4,0-29.5-13.5-29.5-33.7C1224.6,390.7,1237.7,377.7,1254.3,377.7z M1258.5,392.1c-8.8,0-17.1,6.6-17.1,18.8
				c0,12.3,8.3,19.3,17.1,19.3c9,0,17.2-6.8,17.2-19.1C1275.7,398.9,1267.5,392.1,1258.5,392.1z"/>
			<path class="st1" d="M1333.6,377.7c10.2,0,17.6,4.7,21.4,10.3v-9.2h16.5v65.3c0,17.6-10.8,31.5-32.1,31.5c-18.3,0-31-9.1-32.7-24
				h16.3c1.6,5.9,7.7,9.7,15.9,9.7c9,0,16-5.2,16-17.2V434c-3.9,5.6-11.2,10.7-21.4,10.7c-16.5,0-29.6-13.5-29.6-33.7
				C1304,390.7,1317.1,377.7,1333.6,377.7z M1337.8,392.1c-8.8,0-17.1,6.6-17.1,18.8c0,12.3,8.3,19.3,17.1,19.3
				c9,0,17.2-6.8,17.2-19.1C1355,398.9,1346.8,392.1,1337.8,392.1z"/>
			<path class="st1" d="M1415.9,444.7c-18.8,0-32.5-13.1-32.5-33.5c0-20.5,13.3-33.5,32.5-33.5c18.7,0,32,12.8,32,32.1
				c0,2.1-0.1,4.2-0.5,6.3H1400c0.8,9.6,7.4,15,15.6,15c7,0,10.9-3.5,13-7.8h17.7C1442.7,435.2,1431.9,444.7,1415.9,444.7z
				 M1400.1,405.1h30.8c-0.2-8.5-7-13.9-15.5-13.9C1407.6,391.2,1401.4,396.2,1400.1,405.1z"/>
			<path class="st1" d="M1476.2,443.6h-16.4v-64.8h16.4v10.1c4.1-6.7,10.9-11,19.9-11V395h-4.3c-9.7,0-15.6,3.7-15.6,16.3V443.6z"/>
		</g>
	</g>
</g>
</svg>
